HIERARCHY
ROOT Hips
{
  OFFSET 0 0 0
  CHANNELS 6 Xposition Yposition Zposition Zrotation Yrotation Xrotation
  JOINT LeftThigh
  {
    OFFSET 8.409438 0 -5.917753
    CHANNELS 3 Zrotation Yrotation Xrotation
    JOINT LeftLeg
    {
      OFFSET 0 0 -42.358652
      CHANNELS 3 Zrotation Yrotation Xrotation
      JOINT LeftFoot
      {
        OFFSET 0 0 -39.357303
        CHANNELS 3 Zrotation Yrotation Xrotation
      }
    }
  }
  JOINT RightThigh
  {
    OFFSET -8.409438 0 -5.917753
    CHANNELS 3 Zrotation Yrotation Xrotation
    JOINT RightLeg
    {
      OFFSET 0 0 -42.358652
      CHANNELS 3 Zrotation Yrotation Xrotation
      JOINT RightFoot
      {
        OFFSET 0 0 -39.357303
        CHANNELS 3 Zrotation Yrotation Xrotation
      }
    }
  }
  JOINT SpineLow
  {
    OFFSET 0 0 4.719101
    CHANNELS 3 Zrotation Yrotation Xrotation
    JOINT SpineMid
    {
      OFFSET 0 0 12.899191
      CHANNELS 3 Zrotation Yrotation Xrotation
      JOINT Chest
      {
        OFFSET 0 0 12.899191
        CHANNELS 3 Zrotation Yrotation Xrotation
        JOINT LeftShoulder
        {
          OFFSET 7.550562 1.41573 9.438202
          CHANNELS 3 Zrotation Yrotation Xrotation
          JOINT LeftArm
          {
            OFFSET 9.155056 0 4.247191
            CHANNELS 3 Zrotation Yrotation Xrotation
            JOINT LeftForearm
            {
              OFFSET 0 0 25.771955
              CHANNELS 3 Zrotation Yrotation Xrotation
              JOINT LeftHand
              {
                OFFSET 0 0 25.197169
                CHANNELS 3 Zrotation Yrotation Xrotation
              }
            }
          }
        }
        JOINT RightShoulder
        {
          OFFSET -7.550562 1.41573 9.438202
          CHANNELS 3 Zrotation Yrotation Xrotation
          JOINT RightArm
          {
            OFFSET -9.155056 0 4.247191
            CHANNELS 3 Zrotation Yrotation Xrotation
            JOINT RightForearm
            {
              OFFSET 0 0 -25.771955
              CHANNELS 3 Zrotation Yrotation Xrotation
              JOINT RightHand
              {
                OFFSET 0 0 -25.197169
                CHANNELS 3 Zrotation Yrotation Xrotation
              }
            }
          }
        }
        JOINT Neck
        {
          OFFSET 0 0 15.101124
          CHANNELS 3 Zrotation Yrotation Xrotation
          JOINT Head
          {
            OFFSET 0 0 11.325843
            CHANNELS 3 Zrotation Yrotation Xrotation
            End Site
            {
              OFFSET 0 0 14.157303
            }
          }
        }
      }
    }
  }
}
MOTION
Frames: 17
Frame Time: 0.0
0.0  89.887642  0.0  8.757972  -11.812089  -121.478227  30.990158  -36.557862  -87.098516  30.22155  56.533264  96.106762  14.053464  0.605705  2.188061  -18.434444  4.677784  -3.324834  17.427694  9.856971  49.999695  10.336225  5.866581  2.940944  -2.3674  1.954581  2.571579  -6.268218  5.58185  6.844748  -6.268219  5.58185  6.844748  -14.443102  24.8601  9.640642  -125.165967  54.810565  -75.597791  -30.495613  -16.958792  74.838541  88.875991  33.412123  -12.416767  7.459561  -6.480856  27.203852  127.051826  27.751534  71.805629  -16.025232  -4.927673  -99.533795  113.643638  20.855868  -50.316877  1.825344  -1.485499  8.987242  1.39114  -1.087571  6.744561  
0.0  89.887642  0.0  8.648748  -11.175936  -120.557158  32.550483  -37.287736  -82.744472  39.751106  57.297418  105.185311  12.955453  1.358862  1.8029  -18.030329  4.517818  -4.433198  15.855797  10.598883  50.45688  10.502207  6.106606  2.788611  -2.199887  2.052871  2.728213  -5.786332  5.846292  7.280593  -5.786331  5.846292  7.280593  -15.190624  22.275621  8.881116  -131.234492  53.384654  -81.060204  -31.152428  -16.835492  76.581942  89.19715  33.032303  -12.16351  5.943038  -7.39125  25.174949  124.908481  27.1416  70.097439  -16.542927  -4.124032  -99.669721  113.763643  19.810401  -51.060088  1.018539  -2.095744  7.9101  0.791114  -1.55894  5.935425  
0.0  89.887642  0.0  8.8616  -10.690408  -119.362989  32.299099  -38.478407  -78.383934  49.114948  55.423075  114.769862  11.498942  2.071921  1.228319  -17.9607  4.267638  -6.029666  14.63638  12.219593  50.977142  11.463163  6.258946  2.481197  -2.179974  2.147838  2.897639  -5.70615  6.117336  7.739333  -5.70615  6.117336  7.739333  -15.122792  19.845296  7.353467  -137.200463  52.320114  -86.889628  -31.823463  -16.588067  79.031407  88.827504  32.611638  -12.279808  5.748176  -8.243395  22.435351  122.295593  26.71639  68.373511  -15.926266  -3.905617  -100.122131  113.900007  19.042108  -51.73437  0.867497  -2.522021  6.387546  0.676982  -1.882699  4.793478  
0.0  89.887642  0.0  9.001137  -10.555201  -117.443136  30.159931  -39.434435  -74.758402  57.336469  51.70137  123.583588  10.115784  2.260105  0.479788  -17.89101  3.478517  -8.195112  14.256727  13.450197  51.291914  12.146764  6.178613  2.337873  -2.245213  2.176196  2.938736  -5.877669  6.205689  7.843528  -5.877669  6.205689  7.843528  -14.577845  17.778732  5.664515  -141.91538  51.300751  -91.678697  -31.820428  -16.536624  80.541668  87.714544  31.908281  -12.602671  6.285119  -8.740025  19.75596  119.193525  26.735845  66.431499  -14.706938  -4.210245  -100.810275  113.151829  19.313373  -53.436779  1.144929  -2.780251  4.832267  0.880592  -2.0763  3.628715  
0.0  89.887642  0.0  8.827472  -10.515272  -115.057528  28.450688  -37.459138  -71.930609  61.726999  48.966411  131.226073  9.627047  2.306079  -0.047559  -17.913003  2.332361  -10.622112  14.879227  13.360279  51.479892  11.848273  5.91865  2.470364  -2.274376  2.129385  2.862041  -5.969839  6.074738  7.634271  -5.969839  6.074737  7.63427  -14.284322  16.208695  4.557848  -145.083483  50.251811  -94.862462  -31.576168  -16.074844  81.315588  86.975597  31.482388  -12.785429  6.646493  -9.111975  17.802045  116.688828  26.633098  64.688773  -13.422299  -5.168856  -101.884174  111.531959  19.537902  -55.864286  1.218692  -2.954154  3.527519  0.930918  -2.208681  2.650961  
0.0  89.887642  0.0  8.413827  -10.478421  -112.674801  25.191578  -34.198859  -67.426221  62.901225  46.841989  135.336118  9.691462  2.227838  -0.141507  -17.832687  1.292096  -12.85106  15.398053  12.436291  51.557269  11.110191  5.856666  2.584916  -2.086679  2.065643  2.75421  -5.472879  5.870973  7.361158  -5.47288  5.870973  7.361159  -15.392818  14.645781  3.993859  -147.572561  49.360942  -97.475932  -31.457229  -15.222392  81.951973  86.615414  31.360329  -12.876601  5.632766  -9.699471  16.588662  114.148673  26.998351  62.772632  -11.554915  -6.417812  -103.166631  109.332696  19.56703  -58.686503  0.46528  -3.259402  2.510823  0.362277  -2.442691  1.885094  
0.0  89.887642  0.0  7.835083  -10.396905  -110.476268  20.781651  -31.795893  -61.36501  63.311529  44.920223  136.907842  9.515799  2.05909  -0.101636  -17.717114  0.467615  -14.93772  15.406015  11.439448  51.679219  10.497192  5.827078  2.658508  -2.050936  1.925153  2.540198  -5.407796  5.466881  6.788355  -5.407796  5.466881  6.788355  -15.529522  14.011554  4.028307  -149.720961  48.53277  -99.850135  -31.357538  -14.147576  82.558124  86.140415  31.256693  -12.935316  5.318748  -9.85318  16.130395  112.065439  27.234183  60.937712  -9.74083  -7.850925  -104.373192  106.947311  19.16125  -61.104816  0.150987  -3.129354  1.995939  0.123442  -2.346552  1.497355  
0.0  89.887642  0.0  7.296008  -10.31935  -108.671836  16.066975  -29.879519  -54.142172  62.669806  43.017073  136.716854  8.621115  1.897582  -0.259012  -17.824019  -0.165085  -16.706623  15.077791  11.12587  51.655617  10.381224  5.761209  2.744829  -2.052142  1.745065  2.311522  -5.445855  4.957332  6.175477  -5.445855  4.957332  6.175477  -15.474492  13.991295  4.377004  -151.804464  47.819897  -102.110515  -31.281955  -13.231418  83.018053  85.297967  30.957969  -13.122752  5.176321  -9.75173  16.028813  109.217271  28.072003  58.56456  -7.342385  -8.591658  -105.404676  104.501697  18.356989  -62.647036  -0.078728  -2.704898  1.826742  -0.050945  -2.02893  1.369453  
0.0  89.887642  0.0  6.793613  -10.082148  -107.065711  11.586076  -28.679924  -46.941216  62.339624  41.26887  136.216428  7.509435  1.635983  -0.533792  -18.526845  -0.740694  -18.275598  14.63923  11.40122  51.549966  10.701691  5.668187  2.754763  -2.14862  1.58101  2.035499  -5.743204  4.495054  5.42589  -5.743204  4.495054  5.42589  -14.934345  14.096001  5.095927  -154.375644  47.16349  -104.719882  -31.420583  -12.475289  83.302961  84.204135  30.356687  -13.613644  5.325049  -9.604997  16.265903  107.426718  28.662112  56.525699  -6.231044  -9.313315  -106.190215  101.609674  17.240271  -63.267935  -0.086183  -2.205347  2.05289  -0.057219  -1.654322  1.539166  
0.0  89.887642  0.0  6.385058  -9.7629  -105.903811  7.158577  -27.709206  -39.333149  61.532675  40.061294  134.668305  6.716432  1.538705  -0.710515  -19.917325  -1.035186  -19.403632  14.598525  11.386255  51.320065  11.15897  5.578279  2.879938  -2.313337  1.435226  1.839456  -6.21712  4.092331  4.891066  -6.21712  4.092331  4.891065  -14.181297  14.062831  5.452858  -156.738245  46.42774  -107.303971  -31.524054  -11.23197  83.035552  83.010592  29.427401  -14.615197  5.678017  -9.40728  16.199554  105.895522  29.540485  54.338394  -5.577834  -9.73034  -106.706692  98.527131  15.732599  -62.961958  0.088787  -1.700707  2.333372  0.073082  -1.275213  1.750147  
0.0  89.887642  0.0  6.186846  -9.00758  -105.093901  2.586371  -26.780053  -31.309665  60.133369  39.65765  131.964262  6.355331  1.585169  -0.822634  -21.969448  -0.85601  -20.414515  15.066787  10.700405  51.11558  11.388919  5.41281  3.254661  -2.567579  1.257421  1.587232  -6.938463  3.599393  4.203225  -6.938463  3.599393  4.203225  -13.265404  14.659855  6.245388  -157.75967  45.470129  -108.584416  -31.032756  -9.083686  81.622304  81.889963  28.180771  -16.16363  5.817808  -8.69523  16.636992  104.799549  30.704792  52.172533  -5.429029  -10.002422  -106.969679  95.488062  14.016525  -61.804277  0.305218  -0.922993  3.048224  0.23352  -0.690743  2.28658  
0.0  89.887642  0.0  5.852346  -7.67556  -103.912751  -1.566165  -26.738109  -23.976071  58.395101  40.374955  128.769912  6.384913  1.742756  -0.777758  -24.444207  -0.838117  -21.741272  15.597056  9.695595  51.13625  11.309562  5.211353  3.621539  -2.952786  0.986191  1.270465  -8.021298  2.84521  3.348289  -8.021298  2.84521  3.34829  -12.325474  15.610764  6.729592  -159.335666  44.76055  -110.450481  -30.69988  -6.824329  80.044922  80.728354  26.945166  -18.197739  5.862043  -7.439669  17.092426  103.851309  32.285054  49.853435  -5.635091  -10.039798  -106.906971  92.533238  12.262661  -60.051829  0.586148  0.08852  3.851602  0.439074  0.070087  2.88862  
0.0  89.887642  0.0  5.320427  -7.049755  -102.277005  -6.83573  -28.109436  -17.417939  58.572838  41.055806  125.235002  6.758099  2.068032  -0.611479  -25.975036  -1.445119  -23.178572  15.808611  8.904654  51.355725  11.269308  5.117557  3.989324  -3.193105  0.673345  0.857534  -8.705203  1.949675  2.251072  -8.705204  1.949675  2.251072  -11.650175  16.302063  7.204145  -162.044882  44.270959  -113.557653  -30.595449  -5.01765  78.698274  79.353258  25.922884  -20.33913  5.456531  -6.269318  17.797096  102.820362  34.226073  47.329832  -6.158892  -9.831242  -106.540569  89.755159  10.598977  -57.947513  0.699196  0.961624  4.839958  0.516807  0.72681  3.628788  
0.0  89.887642  0.0  4.925456  -6.612589  -101.718792  -15.705644  -28.465859  -9.912389  60.974451  40.652723  120.57844  7.430922  2.402034  -0.421579  -26.94379  -1.603739  -23.626153  14.69993  9.209881  51.107321  12.15206  5.226939  4.872063  -3.334431  0.444383  0.62752  -9.103167  1.29834  1.65052  -9.103167  1.29834  1.65052  -11.583401  16.352308  7.207394  -166.42943  43.21113  -118.358508  -30.575609  -4.410746  77.984088  77.913032  25.124978  -21.965437  4.741991  -5.402578  18.244622  101.362813  36.325909  44.64669  -6.993195  -9.480496  -105.883789  87.160006  9.058689  -55.846708  0.577294  1.619725  5.750331  0.417741  1.220354  4.310935  
0.0  89.887642  0.0  4.587741  -6.40979  -101.960523  -23.689648  -25.691601  -2.061712  60.560849  40.411315  112.463263  8.568362  2.901349  -0.089265  -27.476567  -1.38644  -23.407519  14.323142  9.079975  51.668897  12.012337  5.151679  5.314849  -3.421051  0.323449  0.606084  -9.342928  0.967633  1.607275  -9.342928  0.967633  1.607275  -11.778694  15.641433  6.581975  -170.891715  41.093983  -123.340177  -29.811491  -4.586899  77.543894  76.6263  24.426698  -22.903782  3.858202  -5.106338  18.071139  99.774392  38.374498  41.955635  -7.862706  -9.091708  -105.098465  84.795378  7.542539  -53.664833  0.374976  1.887226  6.300719  0.261776  1.419464  4.723956  
0.0  89.887642  0.0  4.398734  -6.681059  -102.710087  -27.198904  -21.75934  4.302187  56.460103  39.680871  103.091126  9.251882  3.397246  0.068311  -27.597546  -0.923237  -22.840059  14.272661  8.831454  52.47944  12.011214  5.063275  5.700657  -3.504356  0.251275  0.658401  -9.571552  0.780381  1.759052  -9.571553  0.780381  1.759052  -11.288101  14.324759  5.882107  -175.381407  37.56778  -127.710374  -28.456241  -5.358374  76.935194  75.854791  23.681669  -23.380785  3.595857  -5.074885  17.793538  97.603343  40.280376  39.19479  -8.571401  -8.616235  -104.267634  82.441145  5.881795  -51.671538  0.45602  2.045153  6.752504  0.319418  1.539126  5.062317  
0.0  89.887642  0.0  4.543858  -7.018653  -103.555122  -24.955829  -18.007469  9.397279  47.744959  38.311289  92.765366  8.866385  3.654645  -0.101853  -27.627995  -0.234352  -22.554112  14.545264  8.347979  53.627275  12.108047  5.09943  5.940912  -3.574978  0.260529  0.703461  -9.763765  0.814097  1.879648  -9.763766  0.814097  1.879649  -10.681673  13.431082  5.395421  179.375635  34.176167  -131.712568  -27.785084  -7.05175  76.334197  75.615103  22.820938  -23.696172  3.677281  -5.425018  17.725172  94.943762  42.194194  36.496396  -9.076722  -8.153898  -103.456711  80.013594  4.037303  -49.84109  0.611303  2.049255  7.155354  0.434496  1.54435  5.363899  
